<?xml version="1.0" encoding="utf-8"?>
<!-- Svg Vector Icons : http://www.onlinewebfonts.com/icon -->
<!DOCTYPE svg PUBLIC "-//W3C//DTD SVG 1.1//EN" "http://www.w3.org/Graphics/SVG/1.1/DTD/svg11.dtd">
<svg version="1.1" xmlns="http://www.w3.org/2000/svg" xmlns:xlink="http://www.w3.org/1999/xlink" x="0px" y="0px" viewBox="0 0 1000 1000" enable-background="new 0 0 1000 1000" xml:space="preserve">
<metadata> Svg Vector Icons : http://www.onlinewebfonts.com/icon </metadata>
<g><g><path d="M500,10C229.5,10,10,229.5,10,500c0,270.5,219.5,490,490,490c270.5,0,490-219.5,490-490C990,229.5,770.5,10,500,10z M519.6,190.3L656.8,76.6c78.4,31.4,149,82.3,199.9,149l-58.8,152.9l-149,62.7L519.6,339.3V190.3z M343.2,76.6l137.2,113.7v149L351,445.1l-149-62.7l-58.8-156.8C194.2,159,260.9,108,343.2,76.6z M131.5,758.7c-47-66.6-78.4-149-82.3-239.1l149-98l137.2,58.8l51,168.6l-98,101.9L131.5,758.7z M629.4,931.2C590.2,943,547,950.8,500,950.8c-47,0-86.2-7.8-129.4-19.6l-43.1-164.6l90.2-90.2h160.7l94.1,94.1L629.4,931.2z M703.8,750.9l-94.1-98l51-172.5l137.2-58.8l152.9,98c-3.9,90.2-35.3,172.5-82.3,239.1L703.8,750.9z"/></g><g></g><g></g><g></g><g></g><g></g><g></g><g></g><g></g><g></g><g></g><g></g><g></g><g></g><g></g><g></g></g>
</svg>